<svg xmlns="http://www.w3.org/2000/svg" width="333" height="333" viewBox="0 0 333 333" version="1.1"><path d="M 240.469 193.250 L 234.500 199.500 240.750 193.531 C 244.188 190.249, 247 187.436, 247 187.281 C 247 186.542, 246.013 187.444, 240.469 193.250 M 40.500 273 C 41.495 274.100, 42.535 275, 42.810 275 C 43.085 275, 42.495 274.100, 41.500 273 C 40.505 271.900, 39.465 271, 39.190 271 C 38.915 271, 39.505 271.900, 40.500 273 M 110.269 271.693 C 111.242 271.947, 112.592 271.930, 113.269 271.656 C 113.946 271.382, 113.150 271.175, 111.500 271.195 C 109.850 271.215, 109.296 271.439, 110.269 271.693" stroke="none" fill="#0ce4fc" fill-rule="evenodd"/><path d="M 150.589 3.071 C 140.139 4.211, 128.108 6.636, 119.601 9.316 C 113.469 11.248, 112.294 12.047, 109.046 16.495 C 102.790 25.061, 90 48.906, 90 52.003 C 90 52.551, 90.643 53, 91.429 53 C 92.215 53, 94.431 54.484, 96.355 56.298 L 99.852 59.597 115.676 59.548 C 134.152 59.492, 145.805 60.509, 154.919 62.973 C 160 64.347, 158.906 65.198, 171.598 50 C 179.791 40.188, 192.978 26.757, 199.793 21.281 C 202.382 19.202, 204.725 17.252, 205 16.949 C 205.275 16.645, 207.637 14.881, 210.250 13.029 C 212.863 11.177, 215 9.561, 215 9.438 C 215 9.219, 203.899 6.438, 199 5.430 C 185.611 2.675, 163.910 1.617, 150.589 3.071 M 221.254 18.866 C 208.873 28.477, 185.547 52.292, 179.742 61.250 C 178.048 63.862, 176.289 66, 175.832 66 C 175.374 66, 175.005 66.563, 175.011 67.250 C 175.017 67.938, 178.504 69.787, 182.761 71.361 C 190.036 74.050, 208.904 82.842, 210 84.053 C 210.275 84.357, 212.300 85.679, 214.500 86.991 C 221.822 91.358, 238.299 104.403, 246.220 112.104 L 254.040 119.708 258.770 117.305 C 261.722 115.806, 264.799 115.012, 266.955 115.194 C 270.228 115.470, 270.495 115.249, 272.012 110.993 C 273.704 106.245, 276.489 93.870, 277.748 85.500 C 278.492 80.555, 278.668 56.035, 278.012 48.711 C 277.730 45.556, 276.767 44.139, 272.262 40.250 C 266.349 35.146, 256.066 28.013, 249 24.115 C 242.615 20.593, 229.047 13.998, 228.207 14.009 C 227.818 14.014, 224.689 16.200, 221.254 18.866 M 88.500 22.299 C 65.159 34.672, 45.179 53.266, 28.270 78.350 C 26.471 81.018, 25 83.343, 25 83.517 C 25 83.691, 26.913 82.754, 29.250 81.434 C 31.587 80.114, 34.618 78.547, 35.985 77.952 C 40.659 75.918, 44.500 74.271, 48.500 72.587 C 51.649 71.261, 53.032 69.815, 55 65.792 C 58.187 59.278, 63.292 55.194, 71.622 52.495 L 78.225 50.356 83.673 40.035 C 86.668 34.358, 90.909 27.078, 93.097 23.857 C 95.285 20.636, 96.945 18.013, 96.787 18.029 C 96.629 18.045, 92.900 19.967, 88.500 22.299 M 286.060 54.500 C 286.053 55.050, 286.502 57.300, 287.058 59.500 C 289.841 70.522, 288.595 99.758, 284.553 118.229 C 283.022 125.226, 283.008 126.221, 284.402 128.729 C 286.848 133.130, 288.352 140.008, 288.287 146.500 C 288.217 153.587, 287.738 156.297, 285.693 161.191 C 284.216 164.726, 284.285 165.106, 288.129 174.664 C 297.414 197.749, 301.219 217.837, 301.254 243.944 L 301.279 262.388 303.627 259.444 C 306.122 256.315, 308.718 251.686, 315.652 238 C 331.079 207.549, 335.885 163.869, 327.478 130.500 C 326.646 127.200, 325.767 123.675, 325.524 122.666 C 322.352 109.499, 310.891 85.350, 301.478 72 C 295.725 63.842, 286.080 52.893, 286.060 54.500 M 69.501 64.411 C 65.882 67.765, 65.549 70.902, 68.429 74.513 C 70.636 77.282, 71.289 77.500, 77.348 77.500 C 82.951 77.500, 84.203 77.159, 86.109 75.113 C 89.232 71.761, 89.025 67.278, 85.611 64.342 C 81.690 60.969, 73.176 61.006, 69.501 64.411 M 102 74.741 C 101.175 75.036, 98.545 77.238, 96.156 79.634 C 91.898 83.904, 84.471 88, 80.986 88 C 79.063 88, 78.442 90.775, 77.514 103.500 C 77.233 107.350, 76.760 113.200, 76.462 116.500 C 75.760 124.282, 77.505 143.702, 80.050 156.448 C 82.977 171.099, 88.276 187.159, 93.762 198 L 98.568 207.500 103.284 207.643 C 105.878 207.721, 108.030 207.496, 108.067 207.143 C 108.105 206.789, 108.287 205.150, 108.473 203.500 C 108.659 201.850, 109.070 197.287, 109.386 193.361 C 110.107 184.383, 114.431 162.021, 117.480 151.500 C 123.759 129.835, 133.939 106.130, 145.029 87.354 L 149.881 79.140 144.915 78.075 C 132.575 75.429, 105.871 73.354, 102 74.741 M 49.552 84.220 C 43.178 85.932, 40.038 87.229, 25.539 94.137 C 17.637 97.901, 17.125 98.287, 15.790 101.475 C 15.093 103.139, 14.502 104.725, 14.476 105 C 14.450 105.275, 13.933 106.400, 13.326 107.500 C 11.765 110.330, 7.336 124.734, 6.561 129.500 C 6.203 131.700, 5.707 134.400, 5.459 135.500 C 1.255 154.115, 1.434 181.089, 5.901 202.147 L 7.099 207.794 14.800 211.562 C 24.387 216.254, 40.248 222.258, 46 223.374 C 46.825 223.534, 49.300 224.170, 51.500 224.788 C 53.700 225.406, 58.650 226.398, 62.500 226.992 C 66.350 227.586, 70.216 228.289, 71.091 228.553 C 72.212 228.892, 73.230 227.775, 74.543 224.767 C 75.568 222.420, 77.967 218.726, 79.874 216.557 C 81.948 214.200, 82.869 212.456, 82.165 212.222 C 81.518 212.006, 81.242 211.418, 81.553 210.915 C 81.864 210.412, 81.615 210, 81 210 C 80.385 210, 80.138 209.586, 80.450 209.081 C 80.763 208.575, 80.307 207.450, 79.438 206.581 C 78.568 205.711, 78.123 205, 78.449 205 C 78.774 205, 78.172 203.297, 77.109 201.215 C 74.908 196.899, 68.064 177.764, 67.376 174 C 67.124 172.625, 66.293 168.800, 65.529 165.500 C 60.498 143.771, 60.204 111.805, 64.860 92.800 C 65.841 88.795, 65.574 88.373, 59.500 84.343 C 56.537 82.377, 56.415 82.375, 49.552 84.220 M 159.163 91.318 C 154.962 98.350, 147.688 112.373, 147.410 113.979 C 147.360 114.266, 145.960 117.425, 144.298 121 C 141.482 127.059, 138.168 136.340, 133.229 152 C 127.462 170.285, 121.408 211.576, 124.219 213.459 C 131.093 218.065, 132.016 218.908, 136.500 224.663 C 137.691 226.192, 151.151 223.026, 164.943 217.973 C 178.186 213.121, 202.838 200.070, 207.821 195.272 C 208.548 194.573, 209.552 194, 210.053 194 C 211.096 194, 228.752 178.547, 234 173.041 C 244.551 161.973, 246.151 159.728, 245.386 157.076 C 244.977 155.659, 244.583 150.194, 244.509 144.932 C 244.384 135.959, 244.193 135.131, 241.438 131.625 C 236.910 125.861, 219.578 111.333, 208.826 104.289 C 198.060 97.235, 181.963 89.229, 171.154 85.552 L 164.052 83.137 159.163 91.318 M 264.270 132.785 C 259.605 133.515, 255.394 142.513, 256.629 149.115 C 258.755 160.482, 267.896 163.647, 273.620 154.998 C 275.938 151.496, 276.184 150.323, 275.729 144.934 C 275.320 140.080, 274.662 138.257, 272.507 136.007 C 269.584 132.957, 267.754 132.241, 264.270 132.785 M 255.984 175.750 C 255.975 176.162, 254.603 178.075, 252.935 180 C 251.267 181.925, 247.642 186.094, 244.879 189.265 C 236.903 198.419, 220.366 210.992, 202.500 221.486 C 197 224.716, 192.392 227.288, 192.260 227.201 C 192.127 227.113, 188.554 228.621, 184.318 230.551 C 177.174 233.807, 160.523 239.446, 154.921 240.508 C 149.322 241.568, 146.407 242.175, 144.905 242.593 C 143.901 242.872, 142.837 245.158, 142.031 248.768 C 141.328 251.921, 140.163 255.345, 139.442 256.378 C 138.265 258.066, 138.659 258.679, 143.316 262.412 C 174.951 287.767, 205.318 300.204, 244.784 303.970 C 256.042 305.044, 258.089 304.723, 263.435 301.045 C 273.391 294.195, 291.487 276.279, 292.622 272.149 C 292.977 270.856, 293.020 262.081, 292.719 252.649 C 291.945 228.468, 287.804 209.548, 278.298 186.754 C 273.475 175.192, 273.855 175.506, 267.214 177.566 C 266.506 177.786, 264.031 177.305, 261.714 176.497 C 256.893 174.818, 256.006 174.702, 255.984 175.750 M 12.015 221.763 C 12.098 225.971, 23.101 248.091, 30.981 259.891 C 40.236 273.750, 61.270 294.465, 76.049 304.277 C 92.340 315.091, 107.418 321.920, 124 325.993 C 135.624 328.848, 136 328.913, 136 328.077 C 136 327.672, 133.537 322.624, 130.527 316.860 C 123.953 304.273, 120.628 295.824, 117.015 282.523 L 114.305 272.546 106.402 270.966 C 91.611 268.008, 80.493 260.148, 75.219 248.922 L 72.513 243.164 66.507 241.995 C 52.721 239.310, 35.591 233.111, 20.271 225.263 C 15.722 222.932, 12.007 221.357, 12.015 221.763 M 98.442 224.948 C 88.114 229.547, 84.958 241.043, 91.793 249.166 C 98.846 257.547, 113.704 258.269, 121.586 250.613 C 125.897 246.427, 127.233 242.734, 126.413 237.267 C 124.698 225.832, 110.500 219.579, 98.442 224.948 M 127.324 269.573 C 127.638 270.633, 128.621 274.425, 129.509 278 C 133.456 293.891, 145.021 322.621, 150.143 329.259 C 151.251 330.694, 153.612 331.113, 163 331.538 C 175.922 332.124, 189.389 330.855, 202 327.863 C 206.675 326.754, 211.562 325.639, 212.860 325.384 C 219.435 324.094, 240.961 315.244, 245.830 311.830 C 247.474 310.677, 246.489 310.468, 238.436 310.262 C 228.966 310.019, 211.661 307.780, 204.568 305.879 C 202.405 305.299, 199.705 304.699, 198.568 304.545 C 197.430 304.391, 195.825 304.015, 195 303.710 C 194.175 303.406, 190.350 302.161, 186.500 300.944 C 170.729 295.958, 148.501 283.904, 131.126 270.915 C 127.580 268.264, 126.861 268.010, 127.324 269.573" stroke="none" fill="#0cecfc" fill-rule="evenodd"/></svg>