<svg xmlns="http://www.w3.org/2000/svg" width="494" height="106" viewBox="0 0 494 106" version="1.1"><path d="" stroke="none" fill="#0ce4f4" fillRule="evenodd"/><path d="M 23.741 3.429 C 9.809 8.400, -4.421 35.426, 3.452 41.960 C 7.142 45.023, 9.393 42.181, 10.546 33 C 14.431 2.092, 45.505 6.458, 47.739 38.225 C 48.202 44.805, 47.796 49.472, 45.539 63.500 C 45.362 64.600, 44.671 67.523, 44.004 69.996 C 43.336 72.469, 42.654 75.200, 42.488 76.064 C 42.321 76.929, 40.793 81.579, 39.092 86.398 C 35.422 96.797, 35.243 99.524, 38.126 101.068 C 41.702 102.981, 44.559 100.856, 46.527 94.818 C 50.427 82.851, 71.389 43.056, 72.964 44.630 C 73.236 44.903, 73.564 47.235, 73.691 49.813 C 73.819 52.391, 74.409 59.990, 75.003 66.700 C 75.596 73.410, 76.010 83.466, 75.923 89.046 C 75.694 103.622, 80.058 106.628, 86.527 96.351 C 90.621 89.847, 96.483 82.386, 104.582 73.372 C 127.646 47.704, 133.105 37.573, 133.361 19.963 C 133.647 0.294, 115.987 -4.734, 111.361 13.699 C 109.942 19.350, 116.503 21.582, 118.922 16.272 C 121.812 9.929, 123.555 23.510, 121.047 32.826 C 118.941 40.646, 111.621 53.262, 104.288 61.712 C 102.754 63.479, 98.800 68.057, 95.500 71.886 C 88.498 80.010, 87.408 80.718, 87.408 77.140 C 87.408 75.688, 86.802 67.408, 86.060 58.739 C 83.995 34.584, 85.679 24.518, 92.572 19.825 C 97.520 16.456, 97.137 9, 92.016 9 C 89.630 9, 78.133 21.482, 71.752 31 C 70.830 32.375, 68.371 35.988, 66.288 39.029 C 64.204 42.070, 61.917 45.670, 61.205 47.029 C 60.493 48.388, 58.991 50.625, 57.868 52 C 56.745 53.375, 56.105 53.957, 56.446 53.293 C 57.680 50.887, 58.154 31.346, 57.129 25.146 C 53.990 6.170, 40.552 -2.570, 23.741 3.429 M 202.691 3.043 C 195.359 4.275, 187.150 7.088, 183.340 9.673 C 181.454 10.953, 179.594 12.001, 179.206 12.001 C 178.449 12.003, 174.534 15.203, 169.200 20.178 C 147.197 40.705, 146.129 80.786, 167.225 94.281 C 193.243 110.925, 223.859 101.058, 227.053 75 C 227.984 67.409, 220.090 67.732, 218.427 75.354 C 214.182 94.802, 187.344 99.903, 173.620 83.869 C 160.275 68.279, 163.974 35.644, 180.757 20.908 C 196.733 6.881, 232.558 7.501, 228.191 21.730 C 226.882 25.995, 227.956 28, 231.550 28 C 235.759 28, 241.626 12.486, 238.772 8.904 C 234.621 3.694, 216.416 0.737, 202.691 3.043 M 259.977 27.143 C 255.917 28.236, 249.623 37.531, 251.964 38.977 C 259.228 43.467, 285.971 32.638, 280.682 27.349 C 279.708 26.375, 263.432 26.213, 259.977 27.143 M 249.400 31.853 C 240.054 38.689, 232.427 47.899, 238.872 44.566 C 240.525 43.711, 242.496 42.130, 243.251 41.053 C 244.005 39.975, 245.720 38.677, 247.061 38.166 C 249.043 37.412, 255.149 29, 253.714 29 C 253.486 29, 251.545 30.284, 249.400 31.853 M 282.289 30.454 C 281.623 31.212, 280.273 32.448, 279.289 33.200 C 270.977 39.559, 270.621 41.539, 277.207 44.783 C 280.668 46.488, 285.017 49.450, 286.872 51.365 C 292.760 57.445, 295.874 54.232, 296.202 41.735 C 296.368 35.441, 295.906 34.770, 288.790 30.977 C 284.449 28.664, 283.901 28.620, 282.289 30.454 M 297.516 37.801 C 297.882 38.516, 298.089 42.341, 297.977 46.301 C 297.597 59.717, 298.105 65.945, 300.391 75.904 C 301.339 80.035, 301.811 84.678, 301.459 86.404 C 300.867 89.303, 300.918 89.373, 302.269 87.500 C 307.288 80.541, 310.896 62.881, 308.452 57.236 C 308.038 56.281, 307.531 54.620, 307.325 53.545 C 306.970 51.694, 302.626 43.702, 300.786 41.516 C 300.316 40.957, 299.239 39.600, 298.392 38.500 C 297.545 37.400, 297.151 37.085, 297.516 37.801 M 246.336 41.567 C 246.005 42.429, 246.214 43.614, 246.800 44.200 C 248.355 45.755, 251 44.390, 251 42.031 C 251 39.565, 247.247 39.192, 246.336 41.567 M 482.500 41.945 C 479.678 43.100, 477.838 45.520, 473.922 53.225 C 471.291 58.402, 469.894 60.084, 467.856 60.532 C 466.399 60.852, 464.415 61.989, 463.447 63.059 C 461.708 64.980, 461.673 64.977, 460.581 62.786 C 456.262 54.123, 440.578 60.953, 434.009 74.358 C 422.877 97.073, 438.890 111.823, 455.359 94.023 C 462.428 86.382, 457.764 81.622, 449.848 88.399 C 443.276 94.023, 441.588 93.152, 441.878 84.284 C 442.243 73.133, 451.248 61.823, 451.441 72.274 C 451.546 77.972, 459.548 76.152, 461.505 69.985 C 461.886 68.783, 462.786 68.428, 464.580 68.771 C 466.444 69.127, 466.940 69.685, 466.454 70.878 C 458.118 91.291, 462.178 105.706, 474.782 100.449 C 481.915 97.474, 487.708 90.302, 485.847 86.750 C 484.437 84.061, 481.727 84.655, 478.038 88.461 C 472.261 94.421, 471.806 89.862, 476.670 74.750 C 479.164 67, 479.164 67, 482.832 66.900 C 492.573 66.636, 496.121 60.800, 486.905 60.202 C 482.310 59.903, 482.310 59.903, 486.316 52.092 C 491.425 42.128, 490.175 38.804, 482.500 41.945 M 250.773 45.995 C 247.220 49.302, 247.335 61.258, 251.001 69.780 C 254.153 77.108, 255.607 76.532, 257.085 67.370 C 257.856 62.595, 259.740 56.795, 262.122 51.870 C 266.325 43.180, 266.650 43.833, 258 43.585 C 254.455 43.484, 252.921 43.995, 250.773 45.995 M 238.424 46.882 C 233.178 49.281, 229.610 58.542, 230.637 67.094 C 230.796 68.417, 231.012 70.778, 231.118 72.341 C 231.226 73.946, 232.004 75.394, 232.905 75.669 C 233.782 75.937, 235.625 76.755, 237 77.487 C 245.977 82.262, 251.744 79.269, 247.871 71.845 C 245.951 68.165, 245.582 65.815, 245.463 56.500 C 245.305 44.089, 245.111 43.824, 238.424 46.882 M 265.347 52.295 C 257.213 68.403, 257.855 81.543, 266.617 78.294 C 268.753 77.502, 271.063 76.812, 271.750 76.760 C 272.438 76.709, 273 76.265, 273 75.774 C 273 75.284, 273.450 75.160, 274 75.500 C 274.550 75.840, 275 75.566, 275 74.892 C 275 74.218, 275.273 73.940, 275.607 74.273 C 277.361 76.028, 288.958 63.886, 288.614 60.655 C 288.304 57.755, 282.490 51, 280.304 51 C 279.587 51, 279 50.633, 279 50.185 C 279 49.113, 272.412 45.993, 270.216 46.025 C 269.126 46.041, 267.350 48.328, 265.347 52.295 M 291.384 58.442 C 290.500 60.746, 291.386 63.451, 293.136 63.788 C 295.039 64.154, 296.291 61.493, 295.455 58.859 C 294.756 56.656, 292.171 56.391, 291.384 58.442 M 130.738 61.018 C 118.255 67.794, 111.714 92.005, 120.430 99.173 C 126.518 104.181, 145 98.120, 145 91.115 C 145 86.869, 140.609 85.564, 137.581 88.910 C 133.217 93.732, 128 92.147, 128 85.999 C 128 82.676, 128.375 82.103, 131.250 81.033 C 144.721 76.019, 148.693 72.507, 147.583 66.589 C 146.304 59.775, 138.055 57.046, 130.738 61.018 M 320.269 63.579 C 315.153 68.919, 314.779 72.302, 319.250 72.816 C 322.627 73.205, 322.645 72.707, 318.884 83 C 313.776 96.979, 313.375 99.070, 315.503 100.626 C 319.435 103.501, 324.029 100.841, 326.538 94.236 C 330.397 84.073, 345.994 61.966, 342.578 71.500 C 336.179 89.362, 335.882 98.258, 341.597 100.862 C 345.542 102.660, 347.534 102.238, 352.304 98.598 C 355.565 96.109, 356.639 95.666, 356.303 96.948 C 354.525 103.749, 366.523 102.450, 368.590 95.618 C 369.978 91.028, 377.324 77.344, 379.839 74.664 C 385.179 68.972, 385.952 69.449, 383.285 76.789 C 375.626 97.866, 383.760 109.357, 397.319 96.616 C 399.997 94.100, 402 93.900, 402 96.149 C 402 100.511, 411.960 102.996, 418.265 100.207 C 422.675 98.256, 429 92.900, 429 91.115 C 429 86.869, 424.609 85.564, 421.581 88.910 C 417.217 93.732, 412 92.147, 412 85.999 C 412 82.676, 412.375 82.103, 415.250 81.033 C 431.249 75.078, 436.233 68.046, 429.058 61.553 C 420.723 54.009, 406.988 63.168, 401.777 79.743 C 400.063 85.195, 399.056 86.988, 397.702 86.993 C 396.713 86.997, 394.775 88.219, 393.395 89.708 C 389.878 93.502, 391.239 84.973, 395.741 75 C 402.751 59.472, 396.459 53.821, 382.099 62.748 C 378.296 65.112, 377.268 65.422, 377.479 64.144 C 378.320 59.053, 370.566 57.393, 365.028 61.480 C 358.023 66.647, 356.610 73, 362.465 73 C 365.109 73, 365.108 73.009, 361.504 83.209 C 359.934 87.650, 359.672 87.884, 356.877 87.325 C 354.625 86.875, 353.324 87.287, 351.457 89.041 C 347.279 92.965, 348.670 84.683, 354.080 73.421 C 360.788 59.456, 351.579 53.794, 338.250 63.689 C 335 66.102, 335 66.102, 335 63.586 C 335 57.290, 326.299 57.286, 320.269 63.579 M 286.573 71.642 C 283.862 74.119, 279.362 77.330, 276.573 78.776 C 270.812 81.762, 271.519 81.480, 267.280 82.479 C 258.232 84.611, 265.972 92.758, 280.687 96.591 C 296.867 100.805, 303.165 92.796, 298.093 74.453 C 295.754 65.993, 293.384 65.415, 286.573 71.642 M 132.036 69.964 C 129.033 72.967, 129.536 74.291, 133 72.500 C 136.067 70.914, 136.750 69.581, 135.036 68.523 C 134.507 68.195, 133.157 68.843, 132.036 69.964 M 416.036 69.964 C 413.033 72.967, 413.536 74.291, 417 72.500 C 420.067 70.914, 420.750 69.581, 419.036 68.523 C 418.507 68.195, 417.157 68.843, 416.036 69.964 M 233.949 81.399 C 238.596 90.515, 244.957 97.139, 252 100.199 C 263.200 105.064, 263.007 105.146, 259.701 96.920 C 257.676 91.880, 256.577 90.442, 253.887 89.311 C 250.246 87.780, 246.771 84.562, 247.727 83.606 C 248.060 83.273, 247.414 83, 246.291 83 C 245.168 83, 241.705 81.875, 238.596 80.500 C 235.487 79.125, 232.779 78, 232.579 78 C 232.379 78, 232.995 79.530, 233.949 81.399 M 252.500 80 C 249.088 83.771, 252.721 88.360, 257.422 86.217 C 259.177 85.418, 260 84.256, 260 82.580 C 260 78.593, 255.252 76.959, 252.500 80 M 261 92.055 C 261 104.085, 271.351 107.912, 285.889 101.258 C 289.500 99.605, 289.500 99.605, 286 99.289 C 278.266 98.591, 265.228 93.796, 263.512 91.019 C 262.445 89.294, 261 89.890, 261 92.055" stroke="none" fill="#0cecfc" fillRule="evenodd"/></svg>